<svg xmlns="http://www.w3.org/2000/svg" aria-hidden="true" style="position:absolute;width:0;height:0;overflow:hidden"><defs>
<symbol id="icon-sprite-all-icons" viewBox="0 0 33 32"><path fill="#e0e0e0" d="M4.667 6.667v18.667a2.666 2.666 0 0 0 2.667 2.667h18.667c1.467 0 2.667-1.2 2.667-2.667V6.667C28.668 5.2 27.468 4 26.001 4H7.334c-1.48 0-2.667 1.2-2.667 2.667zm16 5.333c0 2.213-1.787 4-4 4s-4-1.787-4-4 1.787-4 4-4 4 1.787 4 4zm-12 10.667c0-2.667 5.333-4.133 8-4.133s8 1.467 8 4.133V24h-16v-1.333z" style="fill:var(--color1, #e0e0e0)"/></symbol>
<symbol id="icon-calendar" viewBox="0 0 32 32"><path fill="#4a56e2" d="M12 14.667H9.333v2.667H12v-2.667zm5.333 0h-2.667v2.667h2.667v-2.667zm5.334 0H20v2.667h2.667v-2.667zm2.666-9.334H24V2.666h-2.667v2.667H10.666V2.666H7.999v2.667H6.666c-1.48 0-2.653 1.2-2.653 2.667L4 26.667a2.666 2.666 0 0 0 2.667 2.667h18.667c1.467 0 2.667-1.2 2.667-2.667V8c0-1.467-1.2-2.667-2.667-2.667zm0 21.334H6.666V12h18.667v14.667z" style="fill:var(--color2, #4a56e2)"/></symbol>
<symbol id="icon-check-mark" viewBox="0 0 58 32"><path stroke-width="2.909" d="m2.909 2.909 26.182 26.182L55.273 2.909"/></symbol>
<symbol id="icon-close" viewBox="0 0 32 32"><path stroke-width="1.778" d="m1.778 1.778 28.444 28.444M1.778 30.222 30.222 1.778"/></symbol>
<symbol id="icon-dollar" viewBox="0 0 32 32"><path fill="#6e78e8" d="M5.053 0A5.053 5.053 0 0 0 0 5.053v21.895a5.053 5.053 0 0 0 5.053 5.053h21.895a5.053 5.053 0 0 0 5.053-5.053V5.053A5.053 5.053 0 0 0 26.948 0H5.053zm8.212 13.136c0 .995.765 1.635 3.144 2.253s4.925 1.635 4.925 4.61c0 2.148-1.624 3.332-3.667 3.72v2.253h-3.143v-2.274c-2.012-.43-3.73-1.718-3.856-4.013h2.305c.115 1.236.964 2.2 3.123 2.2 2.316 0 2.829-1.153 2.829-1.876 0-.974-.524-1.896-3.143-2.525-2.923-.702-4.925-1.907-4.925-4.327 0-2.022 1.635-3.342 3.667-3.783V7.111h3.143v2.295c2.19.534 3.29 2.19 3.363 3.992h-2.316c-.063-1.31-.754-2.2-2.619-2.2-1.771 0-2.829.796-2.829 1.938z" style="fill:var(--color3, #6e78e8)"/></symbol>
<symbol id="icon-email" viewBox="0 0 33 32"><path fill="#e0e0e0" d="M27.333 5.333H6A2.663 2.663 0 0 0 3.347 8l-.013 16c0 1.467 1.2 2.667 2.667 2.667h21.333c1.467 0 2.667-1.2 2.667-2.667V8c0-1.467-1.2-2.667-2.667-2.667zm0 5.334-10.667 6.667-10.667-6.667V8l10.667 6.667L27.333 8v2.667z" style="fill:var(--color1, #e0e0e0)"/></symbol>
<symbol id="icon-exit" viewBox="0 0 32 32"><path fill="#bdbdbd" d="M20.051 23.237h2.499v4.997a3.752 3.752 0 0 1-3.748 3.748H3.748A3.752 3.752 0 0 1 0 28.234V3.748A3.752 3.752 0 0 1 3.748 0h15.054a3.752 3.752 0 0 1 3.748 3.748v4.997h-2.499V3.748a1.25 1.25 0 0 0-1.249-1.249H3.748a1.25 1.25 0 0 0-1.249 1.249v24.486a1.25 1.25 0 0 0 1.249 1.249h15.054a1.25 1.25 0 0 0 1.249-1.249v-4.997zm6.06-13.135-1.767 1.767 2.873 2.874H11.056v2.499h16.161l-2.873 2.873 1.767 1.767L32 15.993l-5.889-5.89z" style="fill:var(--color4, #bdbdbd)"/></symbol>
<symbol id="icon-home" viewBox="0 0 32 32"><path fill="#4a56e2" d="M3.556 0A3.556 3.556 0 0 0 0 3.556v24.889a3.556 3.556 0 0 0 3.556 3.556h24.889a3.556 3.556 0 0 0 3.556-3.556V3.556A3.556 3.556 0 0 0 28.445 0H3.556zm10.311 17.987v6.902H8.534v-9.203h-3.2L16.001 5.333l10.667 10.353h-3.2v9.203h-5.333v-6.902h-4.267z" style="fill:var(--color2, #4a56e2)"/></symbol>
<symbol id="icon-lock" viewBox="0 0 33 32"><path fill="#e0e0e0" d="M24.667 10.667h-1.333V8c0-3.68-2.987-6.667-6.667-6.667S10 4.32 10 8v2.667H8.667A2.675 2.675 0 0 0 6 13.334v13.333c0 1.467 1.2 2.667 2.667 2.667h16c1.467 0 2.667-1.2 2.667-2.667V13.334c0-1.467-1.2-2.667-2.667-2.667zm-8 12C15.2 22.667 14 21.467 14 20s1.2-2.667 2.667-2.667c1.467 0 2.667 1.2 2.667 2.667s-1.2 2.667-2.667 2.667zm4.133-12h-8.267V8c0-2.28 1.853-4.133 4.133-4.133S20.799 5.72 20.799 8v2.667z" style="fill:var(--color1, #e0e0e0)"/></symbol>
<symbol id="icon-minus" viewBox="0 0 320 32"><path fill="none" stroke="#fff" stroke-width="32" d="M0 16h320" style="stroke:var(--color5, #fff)"/></symbol>
<symbol id="icon-plus" viewBox="0 0 32 32"><path fill="none" stroke="#fff" stroke-width="3.2" d="M16 0v32M0 16h32" style="stroke:var(--color5, #fff)"/></symbol>
<symbol id="icon-statistica" viewBox="0 0 32 32"><path fill="#6e78e8" d="M3.556 0h24.889a3.556 3.556 0 0 1 3.556 3.556v24.889a3.556 3.556 0 0 1-3.556 3.556H3.556A3.556 3.556 0 0 1 0 28.445V3.556A3.556 3.556 0 0 1 3.556 0zm22.626 13.63c1.244 0 2.263-1.067 2.263-2.37s-1.018-2.37-2.263-2.37c-1.244 0-2.263 1.067-2.263 2.37 0 .213.023.415.079.604l-4.016 4.219c-.181-.059-.385-.083-.588-.083s-.407.024-.588.083l-2.885-3.022c.057-.19.079-.403.079-.616 0-1.304-1.018-2.37-2.263-2.37s-2.263 1.067-2.263 2.37c0 .213.023.427.079.616l-5.159 5.393a1.848 1.848 0 0 0-.577-.083c-1.244 0-2.263 1.067-2.263 2.37s1.018 2.37 2.263 2.37 2.263-1.067 2.263-2.37a2.12 2.12 0 0 0-.079-.604l5.147-5.404c.181.059.385.083.588.083s.407-.024.588-.083l2.885 3.022c-.057.19-.079.403-.079.616 0 1.304 1.018 2.37 2.263 2.37s2.263-1.067 2.263-2.37c0-.213-.023-.427-.079-.616l4.027-4.207c.181.059.373.083.577.083z" style="fill:var(--color3, #6e78e8)"/></symbol>
<symbol id="icon-vector-7" viewBox="0 0 94 32"><path d="M7.508 11.418 0 18.321v8.903A4.776 4.776 0 0 0 4.776 32h81.91a7.163 7.163 0 0 0 7.164-7.164V5.974c-.342-.188-.84-.251-1.051-.266-1.646-.115-2.59.978-3.904 1.991l-.016.013c-.389.3-1.36 1.049-3.137 1.049-1.802 0-3.053-.708-3.454-1.062l-6.006-5.575C75.481 1.416 73.729 0 71.777 0s-3.504 1.416-4.204 2.124l-27.78 23.764c-.45.442-1.832 1.328-3.754 1.328s-3.304-.885-3.754-1.328L16.218 10.754c-.551-.531-2.162-1.593-4.204-1.593s-3.854 1.505-4.505 2.257z"/></symbol>
<symbol id="icon-wallet" viewBox="0 0 32 32"><path fill="#24cca7" d="m3.755 7.619 16.211-4.537-.859-1.779C18.545.146 17.175-.331 16.047.245L1.534 7.62h2.219zM24.813 3.048a2.05 2.05 0 0 0-.586.087L9.215 7.619h18.431l-.693-2.779c-.266-1.083-1.163-1.793-2.14-1.793z" style="fill:var(--color6, #24cca7)"/><path fill="#4a56e2" d="M28.36 8.573H1.801A1.799 1.799 0 0 0 0 10.355v19.862A1.79 1.79 0 0 0 1.797 32h26.559a1.79 1.79 0 0 0 1.797-1.783v-4.973H19.491c-1.685 0-3.054-1.358-3.054-3.03V18.25c0-.82.331-1.565.866-2.111a3.03 3.03 0 0 1 2.185-.916h10.666v-4.867a1.785 1.785 0 0 0-1.793-1.783z" style="fill:var(--color2, #4a56e2)"/><path fill="#4a56e2" d="M31.414 16.926a1.804 1.804 0 0 0-1.211-.467H19.491a1.79 1.79 0 0 0-1.797 1.783v3.968a1.79 1.79 0 0 0 1.797 1.783h10.712c.205 0 .399-.036.582-.096.237-.078.449-.207.629-.371.359-.324.586-.795.586-1.316v-3.968c0-.52-.226-.991-.586-1.316zm-8.171 3.655a.895.895 0 0 1-.898.891h-.597a.895.895 0 0 1-.898-.891v-.592c0-.285.133-.538.345-.699a.91.91 0 0 1 .553-.193h.597c.496 0 .898.399.898.891v.592z" style="fill:var(--color2, #4a56e2)"/></symbol>
</defs></svg>